<svg width="58" height="51" viewBox="0 0 58 51" fill="none" xmlns="http://www.w3.org/2000/svg">
<path d="M30.4272 2.62001C30.4272 1.6948 29.6773 0.944946 28.7521 0.944946C27.8269 0.944946 27.0771 1.6948 27.0771 2.62001V9.7966C27.0771 10.7218 27.8269 11.4717 28.7521 11.4717C29.6773 11.4717 30.4272 10.7218 30.4272 9.7966V2.62001Z" fill="black"/>
<path d="M20.3887 12.7761C20.7154 13.1028 21.1442 13.2668 21.573 13.2668C22.0014 13.2668 22.4302 13.1032 22.7574 12.7761C23.4112 12.1217 23.4112 11.0613 22.7574 10.407L19.1686 6.81868C18.5147 6.16436 17.4543 6.16436 16.8 6.81868C16.1457 7.473 16.1457 8.53344 16.8 9.18776L20.3887 12.7761Z" fill="black"/>
<path d="M35.9296 13.2664C36.3584 13.2664 36.7872 13.1028 37.1139 12.7756L40.7027 9.18732C41.3565 8.53344 41.3565 7.47256 40.7027 6.81868C40.0483 6.16436 38.9879 6.16436 38.3336 6.81868L34.7453 10.407C34.091 11.0613 34.091 12.1217 34.7453 12.7756C35.0724 13.1028 35.5012 13.2664 35.9296 13.2664Z" fill="black"/>
<path d="M23.902 17.1284C23.8845 17.1428 23.868 17.1568 23.8523 17.1699L16.6102 23.3781C15.9393 23.953 15.0817 24.2701 14.1971 24.2701H9.01007C4.12229 24.2701 0.160156 28.2253 0.160156 33.12V49.27C0.160156 50.1948 0.910008 50.945 1.83522 50.945H16.1884C17.1141 50.945 17.8635 50.1943 17.8635 49.27V33.8926L26.3871 26.5864C26.8224 26.2134 27.0728 25.6686 27.0728 25.0954V18.6643C27.0728 17.0285 25.1727 16.0981 23.902 17.1284Z" fill="black"/>
<path d="M48.4898 24.2701H43.3028C42.4182 24.2701 41.5606 23.953 40.8897 23.3776L33.6477 17.1699C33.632 17.1568 33.6154 17.1428 33.5979 17.1284C32.3272 16.0981 30.4271 17.0285 30.4271 18.6643V25.0954C30.4271 25.6686 30.6775 26.2135 31.1128 26.5864L39.6364 33.8926V49.2696C39.6364 50.1943 40.3859 50.9446 41.3115 50.9446H55.6647C56.5899 50.9446 57.3398 50.1948 57.3398 49.2696V33.12C57.3398 28.2253 53.3776 24.2701 48.4898 24.2701Z" fill="black"/>
<path d="M16.0711 17.2108C16.0711 13.3194 12.905 10.1533 9.01354 10.1533C5.12208 10.1533 1.95603 13.3194 1.95603 17.2108C1.95603 21.1027 5.12208 24.2688 9.01354 24.2688C12.905 24.2688 16.0711 21.1027 16.0711 17.2108Z" fill="black"/>
<path d="M55.5405 17.2108C55.5405 13.3194 52.3745 10.1533 48.483 10.1533C44.5916 10.1533 41.4255 13.3194 41.4255 17.2108C41.4255 21.1027 44.5916 24.2688 48.483 24.2688C52.3745 24.2688 55.5405 21.1027 55.5405 17.2108Z" fill="black"/>
</svg>
