<svg width="65" height="70" viewBox="0 0 65 70" fill="none" xmlns="http://www.w3.org/2000/svg">
<path d="M5.01606 33.7646C1.98637 28.4986 1.3695 23.5855 3.52418 19.8751C6.40731 14.8945 13.6414 13.158 22.7895 14.8139C23.3145 14.8923 23.6776 15.3934 23.5879 15.9141C23.5644 16.0385 23.5158 16.1569 23.4451 16.262C23.3744 16.3672 23.2831 16.457 23.1766 16.526C23.0701 16.595 22.9506 16.6418 22.8254 16.6636C22.7003 16.6854 22.5719 16.6817 22.4482 16.6527C13.9936 15.1211 7.54481 16.6745 5.15387 20.8054C3.38856 23.847 3.91137 28.0912 6.64575 32.8343C6.71357 32.9415 6.75889 33.0614 6.77898 33.1865C6.79907 33.3117 6.79352 33.4396 6.76265 33.5625C6.73179 33.6855 6.67626 33.8009 6.5994 33.902C6.52254 34.003 6.42594 34.0874 6.31543 34.1503C6.20542 34.213 6.08375 34.2529 5.95781 34.2674C5.83188 34.2819 5.70429 34.2708 5.58279 34.2347C5.46129 34.1987 5.34841 34.1384 5.25099 34.0576C5.15357 33.9768 5.07365 33.8771 5.01606 33.7646ZM48.5276 16.1298C53.8826 16.1974 57.7326 17.8554 59.4761 20.8512C61.8692 24.9712 60.0011 31.2917 54.4623 37.804C54.3735 37.8961 54.3045 38.0053 54.2596 38.1249C54.2147 38.2445 54.1948 38.3719 54.2012 38.4995C54.2075 38.627 54.24 38.7519 54.2966 38.8664C54.3531 38.981 54.4326 39.0829 54.5301 39.1657C54.9414 39.5165 55.567 39.449 55.8864 39.0176C61.8801 31.9715 63.9757 24.8775 61.0926 19.9187C58.9729 16.2649 54.5082 14.3345 48.5604 14.2561C48.4324 14.2478 48.304 14.2656 48.1832 14.3086C48.0623 14.3515 47.9516 14.4186 47.8577 14.5057C47.7639 14.5929 47.6889 14.6982 47.6375 14.8153C47.586 14.9323 47.5592 15.0586 47.5586 15.1864C47.5563 15.3136 47.5803 15.44 47.6292 15.5575C47.6781 15.675 47.7508 15.7813 47.8428 15.8696C47.9347 15.9579 48.044 16.0264 48.1637 16.0708C48.2834 16.1152 48.411 16.1346 48.5386 16.1277L48.5276 16.1298ZM43.1267 60.3977C42.9133 60.2702 42.658 60.2321 42.4165 60.2917C42.175 60.3513 41.9671 60.5038 41.8382 60.7158C39.1148 65.2323 35.7657 67.6834 32.3248 67.6834C27.5386 67.6834 22.9711 62.9054 20.077 54.8484C19.9923 54.6152 19.8181 54.4251 19.5926 54.3199C19.3672 54.2147 19.1091 54.203 18.875 54.2874C18.6409 54.3717 18.45 54.5453 18.3444 54.7698C18.2387 54.9943 18.227 55.2514 18.3117 55.4846C21.4332 64.1887 26.5607 69.555 32.3248 69.555C36.5182 69.555 40.4032 66.7073 43.4439 61.6788C43.5707 61.466 43.6083 61.212 43.5485 60.9719C43.4887 60.7317 43.3364 60.5246 43.1245 60.3955L43.1267 60.3977ZM64.5795 52.8636C64.5686 56.5064 60.4429 58.6046 57.4701 56.4955C50.3148 60.694 36.632 58.561 23.7586 51.1511C18.2789 47.9962 13.4707 44.2052 9.76731 40.1549C9.67974 40.064 9.61134 39.9565 9.56615 39.8389C9.52095 39.7212 9.49987 39.5957 9.50415 39.4698C9.50843 39.3439 9.53799 39.2202 9.59108 39.1058C9.64416 38.9915 9.71971 38.8889 9.81325 38.8041C9.90656 38.7199 10.016 38.6554 10.1349 38.6143C10.2538 38.5732 10.3798 38.5565 10.5054 38.565C10.631 38.5735 10.7536 38.6072 10.8658 38.664C10.978 38.7208 11.0776 38.7996 11.1586 38.8956C14.7242 42.7999 19.3726 46.4755 24.6926 49.5279C36.8486 56.5173 49.6432 58.5937 56.1839 55.0663C55.8438 54.4709 55.6456 53.8056 55.6045 53.1219C55.5634 52.4381 55.6805 51.754 55.9468 51.1225C56.2132 50.4909 56.6216 49.9287 57.1405 49.4793C57.6595 49.0298 58.2752 48.705 58.9401 48.53C59.6059 48.3542 60.3033 48.3333 60.9785 48.4689C61.6536 48.6046 62.2884 48.8932 62.8336 49.3124C63.3788 49.7315 63.8199 50.2701 64.1226 50.8862C64.4254 51.5024 64.5817 52.1776 64.5795 52.8636ZM8.982 52.8636C8.99293 56.3256 5.21075 58.4804 2.21387 56.7221C-0.783002 54.9748 -0.726128 50.6282 2.31668 48.9592C1.632 40.595 10.452 29.3962 23.7826 21.7249C29.3192 18.5482 35.0854 16.2889 40.4973 15.132C41.6589 14.9729 42.0132 16.6309 40.8954 16.9599C35.6782 18.0711 30.0936 20.2629 24.7167 23.348C12.1736 30.5662 3.87856 40.9719 4.16294 48.4145C4.27669 48.4037 4.3795 48.3928 4.49325 48.3928C6.97606 48.3928 8.982 50.4016 8.982 52.8636ZM27.8382 4.30575C28.0439 -1.43525 36.6101 -1.43525 36.8158 4.30575C36.8158 4.3733 36.8048 4.44302 36.8048 4.49966C44.2445 8.33426 49.4048 21.385 49.4048 36.4663C49.4048 42.6735 48.5386 48.6193 46.9089 53.783C46.7711 54.2928 46.2373 54.6 45.7232 54.441C45.2092 54.2819 44.9379 53.7263 45.1195 53.2274C46.6814 48.2468 47.5236 42.4818 47.5236 36.4663C47.5236 22.2587 42.7832 10.0489 36.3126 6.36031C34.147 10.5239 27.8273 8.99224 27.8382 4.30575ZM31.6423 33.2984C29.8879 33.684 28.7701 35.3987 29.1464 37.146C29.5226 38.8934 31.2551 40.0067 33.0095 39.632C37.2489 38.7235 35.8686 32.3898 31.6423 33.2984Z" fill="black"/>
</svg>
