<svg width="50" height="51" viewBox="0 0 50 51" fill="none" xmlns="http://www.w3.org/2000/svg">
<path d="M22.2222 0.945435H8.33333C6.1232 0.945435 4.00358 1.82341 2.44078 3.38621C0.877974 4.94901 0 7.06863 0 9.27877V42.6121C0 44.8222 0.877974 46.9419 2.44078 48.5047C4.00358 50.0675 6.1232 50.9454 8.33333 50.9454H41.6667C43.8768 50.9454 45.9964 50.0675 47.5592 48.5047C49.122 46.9419 50 44.8222 50 42.6121V14.8343H28.4722C26.8146 14.8343 25.2249 14.1758 24.0528 13.0037C22.8807 11.8316 22.2222 10.2419 22.2222 8.58432V0.945435ZM50 10.6677V9.27877C50 7.06863 49.122 4.94901 47.5592 3.38621C45.9964 1.82341 43.8768 0.945435 41.6667 0.945435H26.3889V8.58432C26.3889 9.73432 27.3222 10.6677 28.4722 10.6677H50Z" fill="black"/>
</svg>
