<svg width="50" height="50" viewBox="0 0 50 50" fill="none" xmlns="http://www.w3.org/2000/svg">
<path d="M48.7029 7.00713L42.489 0.793321C41.9549 0.284085 41.2453 0 40.5073 0C39.7694 0 39.0597 0.284085 38.5256 0.793321L33.0004 6.33537H3.35882C2.468 6.33537 1.61368 6.68925 0.983775 7.31915C0.353874 7.94905 0 8.80337 0 9.69419V46.6412C0 47.532 0.353874 48.3863 0.983775 49.0162C1.61368 49.6461 2.468 50 3.35882 50H40.3058C41.1966 50 42.051 49.6461 42.6809 49.0162C43.3108 48.3863 43.6646 47.532 43.6646 46.6412V16.0088L48.7029 10.9705C49.2279 10.4447 49.5228 9.73195 49.5228 8.98884C49.5228 8.24572 49.2279 7.53298 48.7029 7.00713ZM24.9056 30.0654L17.8689 31.6273L19.5483 24.6577L35.5867 8.58578L41.0112 14.0103L24.9056 30.0654ZM42.8249 12.0957L37.4004 6.67125L40.5073 3.56435L45.9318 8.98884L42.8249 12.0957Z" fill="black"/>
</svg>
