<svg width="51" height="50" viewBox="0 0 51 50" fill="none" xmlns="http://www.w3.org/2000/svg">
<path d="M36.7471 29.9337C38.6185 26.8602 39.6082 23.331 39.608 19.7326C39.608 8.83152 30.7873 0.00434783 19.8841 0C8.99059 0.00326087 0.160156 8.83152 0.160156 19.7304C0.160156 30.6196 8.99168 39.4467 19.8906 39.4467C23.6297 39.4467 27.1134 38.3902 30.0906 36.5848L43.5069 50L50.1602 43.3435L36.7471 29.9337ZM19.8884 31.9348C13.1471 31.9185 7.69711 26.4707 7.68516 19.7435C7.68976 16.5082 8.97686 13.4067 11.2644 11.1188C13.5519 8.83088 16.6531 7.54322 19.8884 7.53804C26.6265 7.55544 32.0786 13.0033 32.0928 19.7435C32.0786 26.463 26.6243 31.9185 19.8884 31.9348Z" fill="black"/>
</svg>
