<svg width="45" height="51" viewBox="0 0 45 51" fill="none" xmlns="http://www.w3.org/2000/svg">
<path d="M27.8591 25.9416V47.8275C27.9702 48.6607 27.6925 49.5495 27.0537 50.1327C26.7967 50.3902 26.4915 50.5945 26.1555 50.7338C25.8195 50.8732 25.4594 50.9449 25.0956 50.9449C24.7318 50.9449 24.3717 50.8732 24.0357 50.7338C23.6997 50.5945 23.3945 50.3902 23.1375 50.1327L17.555 44.5501C17.252 44.254 17.0217 43.8918 16.882 43.4919C16.7423 43.092 16.6969 42.6652 16.7495 42.2449V25.9416H16.6662L0.668362 5.44433C0.217335 4.86533 0.0138223 4.13134 0.102294 3.40275C0.190766 2.67416 0.564028 2.01021 1.14052 1.55597C1.66823 1.16714 2.25148 0.944946 2.86251 0.944946H41.7461C42.3571 0.944946 42.9404 1.16714 43.4681 1.55597C44.0446 2.01021 44.4179 2.67416 44.5063 3.40275C44.5948 4.13134 44.3913 4.86533 43.9403 5.44433L27.9424 25.9416H27.8591Z" fill="black"/>
</svg>
