<svg width="49" height="50" viewBox="0 0 49 50" fill="none" xmlns="http://www.w3.org/2000/svg">
<path d="M30.0781 43.6934V45.1543C30.0781 46.3169 29.2242 47.284 28.1131 47.4486L27.753 48.7757C27.5575 49.4959 26.9093 50 26.1583 50H22.5884C21.8373 50 21.1892 49.4959 20.9937 48.7757L20.6439 47.4486C19.5225 47.2737 18.6686 46.3169 18.6686 45.144V43.6831C18.6686 42.9012 19.2962 42.2737 20.0781 42.2737H28.6686C29.4505 42.284 30.0781 42.9115 30.0781 43.6934ZM36.6933 24.0021C36.6933 27.3251 35.3764 30.3395 33.2365 32.5514C31.611 34.2387 30.5616 36.3889 30.2118 38.6831C30.0575 39.6708 29.2036 40.4012 28.1954 40.4012H20.5513C19.5534 40.4012 18.6892 39.6811 18.5452 38.6934C18.1851 36.3992 17.1254 34.2181 15.4999 32.5411C13.4011 30.3601 12.0945 27.3971 12.0637 24.1358C11.9917 17.284 17.4443 11.7387 24.2962 11.6872C31.1377 11.6358 36.6933 17.1708 36.6933 24.0021ZM25.7674 16.5432C25.7674 15.7819 25.1501 15.1543 24.3785 15.1543C19.4814 15.1543 15.4896 19.1358 15.4896 24.0432C15.4896 24.8045 16.1069 25.4321 16.8785 25.4321C17.6398 25.4321 18.2674 24.8148 18.2674 24.0432C18.2674 20.6687 21.0143 17.9321 24.3785 17.9321C25.1501 17.9321 25.7674 17.3148 25.7674 16.5432ZM24.3785 7.64403C25.1398 7.64403 25.7674 7.02675 25.7674 6.25514V1.38889C25.7674 0.627572 25.1501 0 24.3785 0C23.6069 0 22.9896 0.617284 22.9896 1.38889V6.25514C22.9896 7.02675 23.6172 7.64403 24.3785 7.64403ZM8.03075 23.9918C8.03075 23.2305 7.41347 22.6029 6.64186 22.6029H1.77561C1.01429 22.6029 0.386719 23.2202 0.386719 23.9918C0.386719 24.7531 1.004 25.3807 1.77561 25.3807H6.64186C7.41347 25.3807 8.03075 24.7634 8.03075 23.9918ZM46.9814 22.6029H42.1151C41.3538 22.6029 40.7262 23.2202 40.7262 23.9918C40.7262 24.7531 41.3435 25.3807 42.1151 25.3807H46.9814C47.7427 25.3807 48.3703 24.7634 48.3703 23.9918C48.3703 23.2305 47.753 22.6029 46.9814 22.6029ZM10.86 35.5556L7.41347 39.0021C6.8682 39.5473 6.8682 40.4218 7.41347 40.9671C7.68096 41.2346 8.04104 41.3683 8.39083 41.3683C8.74063 41.3683 9.10071 41.2346 9.3682 40.9671L12.8147 37.5206C13.36 36.9753 13.36 36.1008 12.8147 35.5556C12.2797 35.0103 11.3949 35.0103 10.86 35.5556ZM36.9196 12.8395C37.2694 12.8395 37.6295 12.7058 37.897 12.4383L41.3435 8.99177C41.8888 8.4465 41.8888 7.57202 41.3435 7.02675C40.7982 6.48148 39.9238 6.48148 39.3785 7.02675L35.932 10.4733C35.3867 11.0185 35.3867 11.893 35.932 12.4383C36.2098 12.7058 36.5596 12.8395 36.9196 12.8395ZM10.86 12.428C11.1275 12.6955 11.4875 12.8292 11.8373 12.8292C12.1871 12.8292 12.5472 12.6955 12.8147 12.428C13.36 11.8827 13.36 11.0082 12.8147 10.463L9.3682 7.01646C8.82293 6.47119 7.94845 6.47119 7.40318 7.01646C6.85791 7.56173 6.85791 8.43621 7.40318 8.98148L10.86 12.428ZM37.897 35.5556C37.3517 35.0103 36.4772 35.0103 35.932 35.5556C35.3867 36.1008 35.3867 36.9753 35.932 37.5206L39.3785 40.9671C39.646 41.2346 40.0061 41.3683 40.3559 41.3683C40.7056 41.3683 41.0657 41.2346 41.3332 40.9671C41.8785 40.4218 41.8785 39.5473 41.3332 39.0021L37.897 35.5556Z" fill="black"/>
</svg>
